<svg width="174" height="41" viewBox="0 0 174 41" fill="none" xmlns="http://www.w3.org/2000/svg">
<path d="M67.576 10.864V24.976H69.856V32.992H66.352V28H55.624V32.992H52.12V24.976H53.44C53.888 24.08 54.32 23.136 54.736 22.144C55.152 21.152 55.536 20.088 55.888 18.952C56.256 17.816 56.584 16.584 56.872 15.256C57.16 13.912 57.4 12.448 57.592 10.864H67.576ZM60.472 13.888C60.36 14.72 60.2 15.608 59.992 16.552C59.784 17.48 59.536 18.432 59.248 19.408C58.976 20.384 58.672 21.344 58.336 22.288C58 23.232 57.64 24.128 57.256 24.976H63.952V13.888H60.472ZM84.1041 21.424C84.1041 22.512 83.9521 23.48 83.6481 24.328C83.3601 25.176 82.9361 25.896 82.3761 26.488C81.8321 27.064 81.1681 27.504 80.3841 27.808C79.6001 28.096 78.7121 28.24 77.7201 28.24C76.8081 28.24 75.9601 28.096 75.1761 27.808C74.4081 27.504 73.7441 27.064 73.1841 26.488C72.6241 25.896 72.1841 25.176 71.8641 24.328C71.5601 23.48 71.4081 22.512 71.4081 21.424C71.4081 19.968 71.6641 18.744 72.1761 17.752C72.6881 16.744 73.4241 15.976 74.3841 15.448C75.3441 14.92 76.4801 14.656 77.7921 14.656C79.0241 14.656 80.1121 14.92 81.0561 15.448C82.0001 15.976 82.7441 16.744 83.2881 17.752C83.8321 18.744 84.1041 19.968 84.1041 21.424ZM75.0561 21.424C75.0561 22.288 75.1441 23.016 75.3201 23.608C75.5121 24.184 75.8081 24.624 76.2081 24.928C76.6081 25.216 77.1281 25.36 77.7681 25.36C78.4081 25.36 78.9201 25.216 79.3041 24.928C79.7041 24.624 79.9921 24.184 80.1681 23.608C80.3601 23.016 80.4561 22.288 80.4561 21.424C80.4561 20.56 80.3601 19.84 80.1681 19.264C79.9921 18.688 79.7041 18.256 79.3041 17.968C78.9041 17.68 78.3841 17.536 77.7441 17.536C76.8001 17.536 76.1121 17.864 75.6801 18.52C75.2641 19.16 75.0561 20.128 75.0561 21.424ZM95.6515 14.896H99.5875L94.4035 21.184L100.044 28H95.9875L90.6355 21.352V28H87.0595V14.896H90.6355V21.256L95.6515 14.896ZM112.767 17.584H108.471V28H104.895V17.584H100.599V14.896H112.767V17.584ZM126.854 21.424C126.854 22.512 126.702 23.48 126.398 24.328C126.11 25.176 125.686 25.896 125.126 26.488C124.582 27.064 123.918 27.504 123.134 27.808C122.35 28.096 121.462 28.24 120.47 28.24C119.558 28.24 118.71 28.096 117.926 27.808C117.158 27.504 116.494 27.064 115.934 26.488C115.374 25.896 114.934 25.176 114.614 24.328C114.31 23.48 114.158 22.512 114.158 21.424C114.158 19.968 114.414 18.744 114.926 17.752C115.438 16.744 116.174 15.976 117.134 15.448C118.094 14.92 119.23 14.656 120.542 14.656C121.774 14.656 122.862 14.92 123.806 15.448C124.75 15.976 125.494 16.744 126.038 17.752C126.582 18.744 126.854 19.968 126.854 21.424ZM117.806 21.424C117.806 22.288 117.894 23.016 118.07 23.608C118.262 24.184 118.558 24.624 118.958 24.928C119.358 25.216 119.878 25.36 120.518 25.36C121.158 25.36 121.67 25.216 122.054 24.928C122.454 24.624 122.742 24.184 122.918 23.608C123.11 23.016 123.206 22.288 123.206 21.424C123.206 20.56 123.11 19.84 122.918 19.264C122.742 18.688 122.454 18.256 122.054 17.968C121.654 17.68 121.134 17.536 120.494 17.536C119.55 17.536 118.862 17.864 118.43 18.52C118.014 19.16 117.806 20.128 117.806 21.424ZM137.106 14.656C138.578 14.656 139.77 15.232 140.682 16.384C141.594 17.52 142.049 19.2 142.049 21.424C142.049 22.912 141.834 24.168 141.402 25.192C140.97 26.2 140.378 26.96 139.626 27.472C138.874 27.984 138.002 28.24 137.01 28.24C136.386 28.24 135.842 28.16 135.378 28C134.93 27.84 134.546 27.632 134.226 27.376C133.906 27.12 133.626 26.848 133.386 26.56H133.194C133.258 26.864 133.306 27.184 133.338 27.52C133.37 27.84 133.386 28.16 133.386 28.48V33.76H129.81V14.896H132.714L133.218 16.6H133.386C133.626 16.248 133.914 15.928 134.25 15.64C134.586 15.336 134.986 15.096 135.45 14.92C135.93 14.744 136.482 14.656 137.106 14.656ZM135.954 17.512C135.33 17.512 134.834 17.64 134.466 17.896C134.098 18.152 133.826 18.544 133.65 19.072C133.49 19.584 133.402 20.232 133.386 21.016V21.4C133.386 22.248 133.466 22.968 133.626 23.56C133.786 24.136 134.058 24.576 134.442 24.88C134.826 25.184 135.346 25.336 136.002 25.336C136.546 25.336 136.994 25.184 137.346 24.88C137.698 24.576 137.962 24.128 138.138 23.536C138.314 22.944 138.402 22.224 138.402 21.376C138.402 20.096 138.202 19.136 137.802 18.496C137.418 17.84 136.802 17.512 135.954 17.512ZM156.901 21.424C156.901 22.512 156.749 23.48 156.445 24.328C156.157 25.176 155.733 25.896 155.173 26.488C154.629 27.064 153.965 27.504 153.181 27.808C152.397 28.096 151.509 28.24 150.517 28.24C149.605 28.24 148.757 28.096 147.973 27.808C147.205 27.504 146.541 27.064 145.981 26.488C145.421 25.896 144.981 25.176 144.661 24.328C144.357 23.48 144.205 22.512 144.205 21.424C144.205 19.968 144.461 18.744 144.973 17.752C145.485 16.744 146.221 15.976 147.181 15.448C148.141 14.92 149.277 14.656 150.589 14.656C151.821 14.656 152.909 14.92 153.853 15.448C154.797 15.976 155.541 16.744 156.085 17.752C156.629 18.744 156.901 19.968 156.901 21.424ZM147.853 21.424C147.853 22.288 147.941 23.016 148.117 23.608C148.309 24.184 148.605 24.624 149.005 24.928C149.405 25.216 149.925 25.36 150.565 25.36C151.205 25.36 151.717 25.216 152.101 24.928C152.501 24.624 152.789 24.184 152.965 23.608C153.157 23.016 153.253 22.288 153.253 21.424C153.253 20.56 153.157 19.84 152.965 19.264C152.789 18.688 152.501 18.256 152.101 17.968C151.701 17.68 151.181 17.536 150.541 17.536C149.597 17.536 148.909 17.864 148.477 18.52C148.061 19.16 147.853 20.128 147.853 21.424ZM171.472 18.328C171.472 19.032 171.248 19.632 170.8 20.128C170.368 20.624 169.72 20.944 168.856 21.088V21.184C169.768 21.296 170.496 21.608 171.04 22.12C171.6 22.632 171.88 23.288 171.88 24.088C171.88 24.648 171.768 25.168 171.544 25.648C171.336 26.128 171 26.544 170.536 26.896C170.072 27.248 169.472 27.52 168.736 27.712C168.016 27.904 167.136 28 166.096 28H159.856V14.896H166.096C167.12 14.896 168.032 15.008 168.832 15.232C169.648 15.44 170.288 15.792 170.752 16.288C171.232 16.784 171.472 17.464 171.472 18.328ZM168.184 23.896C168.184 23.384 167.984 23.016 167.584 22.792C167.184 22.552 166.584 22.432 165.784 22.432H163.432V25.528H165.856C166.528 25.528 167.08 25.408 167.512 25.168C167.96 24.912 168.184 24.488 168.184 23.896ZM167.848 18.616C167.848 18.2 167.688 17.896 167.368 17.704C167.048 17.512 166.576 17.416 165.952 17.416H163.432V20.008H165.544C166.296 20.008 166.864 19.904 167.248 19.696C167.648 19.472 167.848 19.112 167.848 18.616Z" fill="white"/>
<circle cx="20.5" cy="20.5" r="20.5" fill="white"/>
<path d="M15.236 31L24.128 14.308V15.478H14.404V12.67H27.222V15.166L18.902 31H15.236Z" fill="#5B9BF3"/>
</svg>
