<svg width="142" height="41" viewBox="0 0 142 41" fill="none" xmlns="http://www.w3.org/2000/svg">
<path d="M53.872 29V12.08H60.016C61.952 12.08 63.584 12.416 64.912 13.088C66.256 13.744 67.272 14.704 67.96 15.968C68.648 17.216 68.992 18.736 68.992 20.528C68.992 22.304 68.648 23.824 67.96 25.088C67.272 26.352 66.256 27.32 64.912 27.992C63.584 28.664 61.952 29 60.016 29H53.872ZM56.968 26.432H59.824C61.872 26.432 63.392 25.944 64.384 24.968C65.376 23.992 65.872 22.512 65.872 20.528C65.872 18.528 65.376 17.048 64.384 16.088C63.392 15.112 61.872 14.624 59.824 14.624H56.968V26.432ZM77.3853 29.24C76.1373 29.24 75.0573 28.984 74.1453 28.472C73.2333 27.96 72.5213 27.232 72.0093 26.288C71.5133 25.344 71.2653 24.224 71.2653 22.928C71.2653 21.632 71.5133 20.52 72.0093 19.592C72.5213 18.648 73.2333 17.92 74.1453 17.408C75.0573 16.896 76.1373 16.64 77.3853 16.64C78.6333 16.64 79.7133 16.896 80.6253 17.408C81.5533 17.92 82.2653 18.648 82.7613 19.592C83.2733 20.52 83.5293 21.632 83.5293 22.928C83.5293 24.224 83.2733 25.344 82.7613 26.288C82.2653 27.232 81.5533 27.96 80.6253 28.472C79.7133 28.984 78.6333 29.24 77.3853 29.24ZM77.3853 26.936C78.3293 26.936 79.0813 26.608 79.6413 25.952C80.2013 25.28 80.4813 24.272 80.4813 22.928C80.4813 21.584 80.2013 20.584 79.6413 19.928C79.0813 19.272 78.3293 18.944 77.3853 18.944C76.4413 18.944 75.6893 19.272 75.1293 19.928C74.5693 20.584 74.2893 21.584 74.2893 22.928C74.2893 24.272 74.5693 25.28 75.1293 25.952C75.6893 26.608 76.4413 26.936 77.3853 26.936ZM91.6844 29.24C90.4364 29.24 89.3404 28.984 88.3964 28.472C87.4684 27.96 86.7484 27.232 86.2364 26.288C85.7244 25.328 85.4684 24.192 85.4684 22.88C85.4684 21.568 85.7244 20.448 86.2364 19.52C86.7644 18.592 87.4924 17.88 88.4204 17.384C89.3484 16.888 90.4364 16.64 91.6844 16.64C92.4844 16.64 93.2604 16.768 94.0124 17.024C94.7804 17.264 95.4044 17.616 95.8844 18.08L94.9724 20.168C94.5404 19.768 94.0524 19.472 93.5084 19.28C92.9804 19.072 92.4604 18.968 91.9484 18.968C90.8764 18.968 90.0364 19.304 89.4284 19.976C88.8364 20.648 88.5404 21.624 88.5404 22.904C88.5404 24.184 88.8364 25.168 89.4284 25.856C90.0364 26.544 90.8764 26.888 91.9484 26.888C92.4444 26.888 92.9564 26.792 93.4844 26.6C94.0284 26.408 94.5244 26.112 94.9724 25.712L95.8844 27.776C95.3884 28.24 94.7564 28.6 93.9884 28.856C93.2364 29.112 92.4684 29.24 91.6844 29.24ZM103.441 29.24C102.001 29.24 100.913 28.864 100.177 28.112C99.441 27.36 99.073 26.232 99.073 24.728V19.136H96.745V16.88H99.073V13.784L102.073 13.016V16.88H105.313V19.136H102.073V24.536C102.073 25.368 102.233 25.952 102.553 26.288C102.873 26.624 103.313 26.792 103.873 26.792C104.177 26.792 104.433 26.768 104.641 26.72C104.865 26.672 105.081 26.608 105.289 26.528V28.904C105.017 29.016 104.713 29.096 104.377 29.144C104.057 29.208 103.745 29.24 103.441 29.24ZM112.706 29.24C111.458 29.24 110.378 28.984 109.466 28.472C108.554 27.96 107.842 27.232 107.33 26.288C106.834 25.344 106.586 24.224 106.586 22.928C106.586 21.632 106.834 20.52 107.33 19.592C107.842 18.648 108.554 17.92 109.466 17.408C110.378 16.896 111.458 16.64 112.706 16.64C113.954 16.64 115.034 16.896 115.946 17.408C116.874 17.92 117.586 18.648 118.082 19.592C118.594 20.52 118.85 21.632 118.85 22.928C118.85 24.224 118.594 25.344 118.082 26.288C117.586 27.232 116.874 27.96 115.946 28.472C115.034 28.984 113.954 29.24 112.706 29.24ZM112.706 26.936C113.65 26.936 114.402 26.608 114.962 25.952C115.522 25.28 115.802 24.272 115.802 22.928C115.802 21.584 115.522 20.584 114.962 19.928C114.402 19.272 113.65 18.944 112.706 18.944C111.762 18.944 111.01 19.272 110.45 19.928C109.89 20.584 109.61 21.584 109.61 22.928C109.61 24.272 109.89 25.28 110.45 25.952C111.01 26.608 111.762 26.936 112.706 26.936ZM121.413 29V19.976C121.413 19.464 121.397 18.944 121.365 18.416C121.349 17.888 121.309 17.376 121.245 16.88H124.149L124.485 20.192H124.005C124.165 19.392 124.429 18.728 124.797 18.2C125.181 17.672 125.645 17.28 126.189 17.024C126.733 16.768 127.325 16.64 127.965 16.64C128.253 16.64 128.485 16.656 128.661 16.688C128.837 16.704 129.013 16.744 129.189 16.808L129.165 19.448C128.861 19.32 128.597 19.24 128.373 19.208C128.165 19.176 127.901 19.16 127.581 19.16C126.893 19.16 126.309 19.304 125.829 19.592C125.365 19.88 125.013 20.28 124.773 20.792C124.549 21.304 124.437 21.888 124.437 22.544V29H121.413ZM135.061 29.24C134.021 29.24 133.061 29.12 132.181 28.88C131.317 28.624 130.589 28.272 129.997 27.824L130.837 25.808C131.445 26.224 132.117 26.544 132.853 26.768C133.589 26.992 134.333 27.104 135.085 27.104C135.885 27.104 136.477 26.968 136.861 26.696C137.261 26.424 137.461 26.056 137.461 25.592C137.461 25.224 137.333 24.936 137.077 24.728C136.837 24.504 136.445 24.336 135.901 24.224L133.501 23.768C132.477 23.544 131.693 23.16 131.149 22.616C130.621 22.072 130.357 21.36 130.357 20.48C130.357 19.728 130.557 19.064 130.957 18.488C131.373 17.912 131.957 17.464 132.709 17.144C133.477 16.808 134.373 16.64 135.397 16.64C136.293 16.64 137.133 16.76 137.917 17C138.717 17.24 139.389 17.6 139.933 18.08L139.069 20.024C138.573 19.624 138.005 19.312 137.365 19.088C136.725 18.864 136.101 18.752 135.493 18.752C134.661 18.752 134.053 18.904 133.669 19.208C133.285 19.496 133.093 19.872 133.093 20.336C133.093 20.688 133.205 20.984 133.429 21.224C133.669 21.448 134.037 21.616 134.533 21.728L136.933 22.184C138.005 22.392 138.813 22.76 139.357 23.288C139.917 23.8 140.197 24.504 140.197 25.4C140.197 26.2 139.981 26.888 139.549 27.464C139.117 28.04 138.517 28.48 137.749 28.784C136.981 29.088 136.085 29.24 135.061 29.24Z" fill="#233348"/>
<circle cx="20.5" cy="20.5" r="20.5" fill="#458FF6"/>
<path d="M15.236 31L24.128 14.308V15.478H14.404V12.67H27.222V15.166L18.902 31H15.236Z" fill="white"/>
</svg>
